<?xml version="1.0" standalone="no"?>
<!DOCTYPE svg PUBLIC "-//W3C//DTD SVG 20010904//EN"
 "http://www.w3.org/TR/2001/REC-SVG-20010904/DTD/svg10.dtd">
<svg version="1.0" xmlns="http://www.w3.org/2000/svg"
 width="512.000000pt" height="512.000000pt" viewBox="0 0 512.000000 512.000000"
 preserveAspectRatio="xMidYMid meet">
<metadata>
Created by potrace 1.11, written by Peter Selinger 2001-2013
</metadata>
<g transform="translate(0.000000,512.000000) scale(0.100000,-0.100000)"
fill="#000000" stroke="none">
<path d="M2167 5104 c-317 -49 -666 -178 -947 -348 -320 -196 -635 -507 -844
-836 -167 -263 -303 -627 -356 -950 -26 -161 -29 -635 -5 -795 49 -323 176
-670 349 -955 196 -320 507 -635 836 -844 190 -121 473 -242 714 -306 233 -62
336 -72 686 -68 296 4 323 6 449 32 411 84 768 248 1101 504 126 97 363 340
461 472 122 165 171 244 259 425 117 239 189 462 231 720 19 117 20 161 17
445 -4 296 -6 323 -32 449 -84 411 -248 768 -504 1101 -97 126 -340 363 -472
461 -165 122 -244 171 -425 259 -237 117 -462 189 -715 230 -107 17 -168 20
-420 19 -195 -1 -325 -6 -383 -15z m-107 -739 c38 -20 66 -55 83 -105 9 -25
30 -79 47 -120 183 -438 290 -1021 290 -1580 0 -559 -107 -1142 -290 -1580
-17 -41 -38 -95 -47 -120 -20 -60 -56 -96 -115 -116 -40 -13 -54 -14 -85 -3
-102 33 -125 70 -133 215 -6 108 -7 114 -34 135 -23 18 -27 27 -22 53 7 37 1
47 -37 64 -16 7 -34 26 -42 45 -9 21 -37 49 -82 79 -76 53 -163 134 -163 152
0 20 30 56 48 56 9 0 37 -18 62 -41 44 -39 205 -159 215 -159 4 0 74 48 114
77 9 6 -37 47 -104 91 -104 69 -189 158 -228 239 -30 63 -32 75 -32 174 l0
107 -58 37 c-32 21 -60 36 -62 33 -3 -2 -12 -40 -21 -83 -18 -87 -14 -167 12
-255 19 -64 12 -98 -21 -106 -35 -9 -50 8 -72 74 -26 81 -25 305 1 381 17 50
17 56 3 81 -9 15 -19 45 -23 68 -13 82 62 172 144 172 25 0 30 5 36 31 8 41 8
157 0 198 -6 26 -11 31 -36 31 -82 0 -157 90 -144 172 4 23 14 53 23 68 14 25
14 31 -3 81 -15 43 -19 83 -19 199 0 144 0 146 36 231 61 146 159 258 322 368
26 18 47 38 47 45 0 22 40 66 60 66 22 0 31 22 24 59 -5 23 0 32 22 50 27 21
28 27 34 135 6 95 10 118 29 145 51 71 145 95 221 56z m1223 11 c45 -18 183
-169 234 -254 77 -129 86 -170 91 -392 l3 -196 -27 -27 c-35 -35 -68 -34 -124
3 l-45 30 -5 -231 c-5 -214 -6 -232 -24 -245 -24 -17 -31 -17 -57 -4 -18 10
-19 24 -19 283 l0 273 -30 23 c-29 21 -31 21 -55 4 l-24 -18 -1 -1382 0 -1382
21 -11 c30 -17 62 -8 76 20 10 20 13 237 13 1007 0 540 3 988 6 997 4 10 18
16 38 16 25 0 35 -6 44 -25 9 -18 12 -147 12 -438 l0 -412 201 -200 c110 -110
207 -212 215 -227 32 -61 8 -163 -47 -195 -16 -10 -29 -20 -29 -23 0 -4 14
-19 31 -36 42 -40 59 -75 59 -124 0 -53 -24 -105 -62 -131 l-29 -21 36 -39
c42 -46 55 -77 55 -125 0 -105 -96 -180 -195 -153 -30 8 -64 35 -136 106 l-96
95 -8 -48 c-9 -61 -27 -97 -62 -122 -106 -74 -243 -2 -243 128 0 22 -3 40 -7
40 -5 0 -50 -43 -101 -94 -110 -111 -147 -127 -226 -100 -113 39 -141 171 -56
265 22 24 40 46 40 49 0 3 -13 12 -28 21 -51 29 -77 119 -52 183 5 14 26 43
46 66 35 39 36 41 18 55 -10 8 -22 15 -26 15 -13 0 -48 87 -48 118 0 18 6 47
14 65 13 31 136 157 153 157 19 0 53 -33 53 -51 0 -12 -27 -49 -60 -83 -63
-66 -73 -95 -43 -128 35 -39 61 -25 195 109 l128 128 0 77 c0 43 -3 78 -6 78
-3 0 -19 -11 -36 -25 -32 -27 -67 -32 -86 -13 -25 25 -11 54 58 123 l70 69 0
758 c0 417 -4 758 -8 758 -5 0 -26 -13 -48 -30 -48 -36 -84 -38 -121 -6 l-28
24 0 189 c0 237 12 284 112 440 58 92 193 222 241 232 1 1 17 -5 35 -13z"/>
<path d="M1938 4270 c-23 -18 -25 -27 -31 -127 -3 -59 -8 -116 -12 -125 -5
-13 6 -22 50 -43 32 -14 62 -27 68 -28 19 -4 35 83 36 195 1 104 0 107 -25
127 -33 26 -54 26 -86 1z"/>
<path d="M2125 3948 c-4 -18 -6 -50 -6 -70 0 -27 -6 -42 -23 -55 -30 -24 -77
-100 -81 -129 -3 -30 -23 -54 -44 -54 -10 0 -28 -11 -41 -25 -13 -14 -63 -52
-110 -84 -160 -110 -220 -198 -220 -321 l0 -67 39 -7 c105 -16 165 -141 113
-231 l-20 -33 23 -64 c37 -102 48 -234 31 -353 -7 -55 -23 -124 -34 -153 -21
-53 -21 -53 -1 -87 53 -90 -7 -215 -112 -231 l-39 -7 0 -67 c0 -123 60 -211
220 -321 47 -32 97 -70 110 -84 13 -14 31 -25 41 -25 21 0 41 -24 44 -54 4
-29 51 -105 81 -129 17 -13 23 -28 23 -55 -1 -46 11 -102 21 -102 12 0 111
319 133 430 3 14 14 70 25 125 60 300 76 482 76 865 0 383 -16 565 -76 865
-11 55 -22 111 -25 125 -22 111 -121 430 -133 430 -4 0 -11 -15 -15 -32z"/>
<path d="M1841 3886 c-8 -13 -10 -29 -7 -35 9 -14 92 -71 103 -71 8 0 43 52
43 64 0 5 -114 66 -123 66 -2 0 -9 -11 -16 -24z"/>
<path d="M1665 3721 c-111 -81 -216 -194 -255 -275 -33 -69 -60 -176 -60 -238
0 -36 26 -178 35 -186 2 -3 30 12 62 33 l58 37 0 107 c0 99 2 111 32 174 39
81 124 170 228 239 67 44 113 85 104 91 -51 38 -111 77 -117 76 -4 0 -43 -27
-87 -58z"/>
<path d="M1503 2974 c-147 -99 -159 -115 -133 -165 20 -36 64 -24 168 47 53
37 105 73 115 82 35 31 12 102 -33 102 -11 0 -63 -30 -117 -66z"/>
<path d="M1587 2772 c-57 -36 -58 -38 -50 -72 10 -45 10 -234 0 -280 -7 -34
-6 -36 49 -73 32 -21 61 -34 65 -30 22 22 40 134 40 243 0 107 -18 221 -39
242 -4 4 -33 -9 -65 -30z"/>
<path d="M1370 2311 c-16 -31 -12 -56 13 -78 43 -40 218 -153 237 -153 45 0
68 71 33 102 -10 9 -62 45 -115 82 -104 71 -148 83 -168 47z"/>
<path d="M1878 1305 c-51 -37 -56 -49 -34 -78 13 -17 17 -17 75 13 34 16 61
33 61 36 0 14 -35 64 -45 64 -5 0 -31 -16 -57 -35z"/>
<path d="M1952 1148 c-50 -23 -62 -33 -57 -46 4 -9 9 -66 12 -125 6 -100 8
-109 31 -127 32 -25 53 -25 86 1 25 20 26 24 26 119 0 95 -14 195 -28 204 -4
2 -35 -10 -70 -26z"/>
<path d="M3183 4217 c-72 -74 -134 -167 -164 -246 -19 -47 -23 -81 -27 -213
-2 -87 -1 -158 3 -158 4 0 52 32 106 70 l99 71 0 149 c0 148 0 150 25 166 23
15 27 15 50 0 25 -16 25 -18 25 -164 l0 -148 96 -69 c52 -39 99 -71 105 -73
12 -5 11 260 -1 315 -13 58 -52 138 -95 198 -37 52 -143 165 -155 165 -4 0
-34 -28 -67 -63z"/>
<path d="M3410 1789 l0 -84 123 -123 c104 -104 127 -122 153 -122 36 0 69 39
59 69 -5 15 -273 294 -318 330 -16 12 -17 7 -17 -70z"/>
<path d="M2922 1397 c-142 -142 -162 -166 -162 -194 0 -26 6 -36 30 -48 16 -8
32 -15 36 -15 4 0 67 59 141 132 l133 132 0 78 c0 43 -3 78 -8 78 -4 0 -80
-73 -170 -163z"/>
<path d="M3410 1480 l0 -86 129 -128 c111 -110 133 -127 153 -121 28 8 58 41
58 63 0 9 -76 93 -170 186 l-170 171 0 -85z"/>
<path d="M2922 1087 c-141 -142 -162 -166 -162 -194 0 -33 29 -63 61 -63 8 0
75 59 147 132 l132 131 0 79 c0 43 -3 78 -8 78 -4 0 -80 -73 -170 -163z"/>
<path d="M3410 1170 l0 -86 128 -127 c71 -70 136 -127 146 -127 22 0 66 44 66
66 0 10 -76 95 -170 188 l-170 171 0 -85z"/>
</g>
</svg>
